PathFileType	4	(X/Y/Z)	Patient4_TMGait_0pt7_01_right_11.trc.trc
DataRate	CameraRate	NumFrames	NumMarkers	Units	OrigDataRate	OrigDataStartFrame	OrigNumFrames
85.365853658537	85.365853658537	4	33	mm	85.365853658537	71	       141
Frame#	Time	Sacral			L.Shoulder			Chest			R.Shoulder			Neck			R.ASIS			L.ASIS			R.Thigh.Superior			R.Thigh.Lateral			R.Thigh.Inferior			R.Patella			L.Thigh.Superior			L.Thigh.Lateral			L.Thigh.Inferior			L.Patella			L.Shank.Superior			L.Shank.Lateral			L.Shank.Inferior			R.Shank.Superior			R.Shank.Lateral			R.Shank.Inferior			R.Heel			R.Midfoot.Superior			R.Midfoot.Lateral			R.Toe			L.Heel			L.Midfoot.Lateral			L.Midfoot.Superior			L.Toe			L.Elbow			L.Wrist			R.Elbow			R.Wrist			
		X1	Y1	Z1	X2	Y2	Z2	X3	Y3	Z3	X4	Y4	Z4	X5	Y5	Z5	X6	Y6	Z6	X7	Y7	Z7	X8	Y8	Z8	X9	Y9	Z9	X10	Y10	Z10	X11	Y11	Z11	X12	Y12	Z12	X13	Y13	Z13	X14	Y14	Z14	X15	Y15	Z15	X16	Y16	Z16	X17	Y17	Z17	X18	Y18	Z18	X19	Y19	Z19	X20	Y20	Z20	X21	Y21	Z21	X22	Y22	Z22	X23	Y23	Z23	X24	Y24	Z24	X25	Y25	Z25	X26	Y26	Z26	X27	Y27	Z27	X28	Y28	Z28	X29	Y29	Z29	X30	Y30	Z30	X31	Y31	Z31	X32	Y32	Z32	X33	Y33	Z33	

71	12.880000000000	812.411584621384	997.240871122462	502.235927561874	984.157150572952	1419.094142795878	308.110316894662	1099.304157264419	1346.391870168370	458.927964704220	1036.321488651209	1427.908700694637	636.444804807353	1005.496158970597	1480.451529539466	462.490443608121	1040.299663220294	936.073893419340	614.937641328047	1020.724103206439	943.627373297531	338.487514361270	1040.657272565279	723.375649613498	590.872826737148	934.984547604297	628.132236681500	648.350799065276	998.088792142115	563.477098767420	570.183682919515	978.152072210349	477.213102476934	572.925474037795	1100.572493825902	773.623719431248	370.767813766363	1063.707397913817	642.798116567865	286.823062307633	1170.751552154909	590.722021758118	347.837732158675	1202.045001253693	526.756611013389	342.865958427391	1188.564491777894	453.252118272071	332.027589319761	1127.580960556430	320.574488323713	282.767973286073	1221.206749120111	225.942549666575	334.358292554485	938.873359303996	392.314324088307	578.202525062560	851.918199099486	298.871385292148	637.407633201783	880.910445969254	200.276766579850	572.452158978377	729.415932084761	42.872101549450	537.036379824006	901.613764590900	96.471973048727	576.002917696326	811.326189429288	36.870122637516	612.836950117460	1020.051511505884	40.873365006078	605.600642696505	1147.195623951133	45.134225190569	373.706341965236	1220.806552778868	50.695579663403	293.462160446522	1289.775388574038	129.241479038264	313.120534032883	1424.314828803799	101.145744211325	287.806975658795	817.653714332983	1108.646098055578	223.071288196811	745.701318675830	860.241712315069	239.255196479797	1222.350529365326	1153.184089787522	738.158010204291	1418.650718290546	1272.235617559870	633.231125106670	
72	12.891714285714	813.992343038344	995.086599976563	500.037167159926	983.683799118433	1417.383030916585	305.538815778240	1098.831458933026	1345.610270974932	456.781319375725	1034.798850986735	1427.098168870860	633.949216443478	1004.294871729754	1479.037338320507	459.892531198684	1041.502475097654	934.526567546554	613.266519253623	1022.714525908713	941.888204006500	336.778271790058	1040.846519261416	721.331883457214	589.277959948220	934.418894684842	626.686796034252	646.839880598015	996.935365587863	561.465212027407	568.616954814433	976.079149450421	474.851041839186	571.174385982684	1102.498905062327	771.094752711346	369.470747942704	1063.709356375974	639.682308413128	287.347664521126	1171.071745009745	587.758850571133	347.607542096673	1200.924730667296	522.783999765369	343.698972929318	1186.702867408199	448.939332648635	333.001749773816	1123.570960948513	317.007749456520	284.789251079374	1215.803930434261	221.391220505198	336.741973440524	935.591099672711	390.465460428811	576.783736595108	847.557322881546	298.287675283596	636.500288706463	874.587278028650	199.227811924359	571.570179406771	721.220950369913	42.854465451683	536.973993536986	893.416626909694	96.340513420872	575.772047151097	803.090829073950	36.820848832757	612.818493588446	1011.808813231695	40.652950485154	605.705601139163	1138.771117988972	43.069638673675	377.367279916962	1211.503104522805	47.185899543568	296.175104194572	1282.578651911350	123.549585502895	315.571862187413	1416.089100106348	92.191638896507	288.457291845512	814.813808349885	1108.789282829535	221.416673282729	739.432488784026	861.466725331554	239.081936394383	1222.444691684148	1154.444761458523	736.745924217690	1410.847256157077	1282.179878339924	629.332791683443	
73	12.903428571429	815.730829800527	992.867707163419	497.736777752869	983.298616917562	1415.630781325220	302.791164618742	1098.451499956665	1344.827157904149	454.500846720227	1033.304123619146	1426.281298159961	631.341110454218	1003.150450951366	1477.628147889873	457.107686861536	1042.786977976400	932.920234640374	611.489594282801	1024.836027189901	940.202219635679	335.016220139281	1041.247408551693	719.251387166867	587.650171348670	934.064309011875	625.153006064606	645.162282852356	996.161570541999	559.383172206516	566.972371814022	974.424339284800	472.288954641078	569.359224850369	1104.711396556274	768.674842108070	368.179836082293	1064.074682393377	636.858105100122	287.750415196187	1171.635134913419	584.973161952884	347.498529717453	1199.923290295057	518.870129864534	344.682626652839	1184.886596215682	444.684548836067	333.999891524587	1119.510296612044	313.711515903837	286.350529580194	1209.854950765013	216.845806411276	338.972978652834	932.590007132934	388.527161999460	575.246691857598	843.331437483768	297.743523407192	635.443709639424	868.358698410761	198.200127055511	570.635898070306	713.020010633373	42.962973087585	536.920236633332	885.258996743363	96.230887499159	575.505644624551	794.877795104371	36.825438215699	612.778743801214	1003.605091410546	40.404434361515	605.820872514960	1129.123200525183	41.229604561239	380.370395703119	1201.168090515476	43.907668149307	298.400617684305	1274.434289255447	117.873425485203	317.907803767925	1406.918637073692	83.002357133989	289.242572215926	812.586273110318	1108.516689407244	219.654903353446	734.489056995927	862.086804788694	238.528362985594	1221.905411314026	1155.088141438370	735.708873954323	1402.492654558530	1290.495546960807	625.836875918145	
74	12.915142857143	817.545591557620	990.672441554863	495.352853310920	983.010643507612	1413.885840973533	299.891344779523	1098.167110518378	1344.072392252005	452.109609518919	1031.877841854355	1425.511264696083	628.641937872053	1002.110448879608	1476.282880368829	454.147211904386	1044.094488832860	931.312723295781	609.613510311015	1027.011095179315	938.660474447170	333.218919884180	1041.858348335276	717.206528189814	585.961463224028	933.975597832355	623.564432123465	643.297626878319	995.839258001018	557.287129886022	565.216034749830	973.303402757029	469.547145087021	567.482451565846	1107.135967423238	766.474926872797	366.917981287103	1064.813518836610	634.482145273226	287.911785887658	1172.387287417350	582.480158250928	347.451730286402	1199.063174524343	515.232869899395	345.691560382060	1183.220140382656	440.726945220809	334.911172627666	1115.696441373822	310.845572955924	287.311630119132	1203.750236878787	212.588624542413	340.921542418509	929.938612651025	386.534819275411	573.583689358468	839.299927919964	297.308120402888	634.238587199576	862.272383640474	197.259007224071	569.655497851859	704.821486431264	43.320369365616	536.887320222963	877.180958171439	96.164752953821	575.214181324169	786.700792771596	36.952071682599	612.727592362203	995.455014563425	40.130753439953	605.937953305035	1118.887837021419	39.719316252173	382.641448432417	1190.446653253665	41.050120516759	300.079528131817	1265.824699718412	112.594167254075	319.997687385119	1397.344321602465	74.232058182081	290.088311652875	811.026375653018	1107.807729471217	217.787805004246	730.904894223360	862.066296821616	237.556568778561	1220.694151383078	1155.081068096816	735.043476629715	1393.708924028089	1297.173262236149	622.730972880353	
